<svg width="49" height="49" viewBox="0 0 49 49" fill="none" xmlns="http://www.w3.org/2000/svg">
<g clip-path="url(#clip0_104_15)">
<path d="M19.3255 17.4499C17.5969 20.6785 12.9557 20.6624 11.2356 17.45C10.1152 15.3578 6.95673 17.055 8.07454 19.1425C11.1144 24.8201 19.38 24.9451 22.4869 19.1424C23.605 17.0538 20.4448 15.3592 19.3255 17.4499Z" fill="white"/>
<path d="M8.07481 11.4185C6.94178 13.5342 10.1305 15.1756 11.2359 13.111C12.9578 9.89523 17.5983 9.88461 19.3258 13.111C20.4437 15.1993 23.6068 13.5097 22.487 11.4185C19.3952 5.64362 11.1303 5.71157 8.07481 11.4185Z" fill="white"/>
<path d="M47.0017 37.3607L33.6886 24.0477C32.9886 23.3475 31.8534 23.3475 31.1532 24.0477L28.8684 26.3325L27.2837 24.7478C32.0195 18.7528 31.6225 10.0021 26.0907 4.47026C20.13 -1.49041 10.4313 -1.49041 4.47058 4.47026C-1.49019 10.4309 -1.49019 20.1297 4.47058 26.0904C10.0863 31.7063 18.8327 31.9704 24.7492 27.2845L26.3329 28.8681L24.0481 31.1529C23.3483 31.8526 23.348 32.9883 24.0481 33.6883L37.3613 47.0015C40.0253 49.6658 44.3375 49.666 47.0018 47.0015C49.6659 44.3373 49.6663 40.0251 47.0017 37.3607ZM23.555 23.5547C18.9819 28.128 11.5797 28.1285 7.00595 23.5547C2.4434 18.9922 2.4434 11.5682 7.00595 7.00563C11.5684 2.44337 18.9923 2.44289 23.555 7.00563C28.1176 11.5682 28.1176 18.9922 23.555 23.5547ZM44.4662 44.4659C43.2062 45.7258 41.1565 45.7258 39.8965 44.4659L27.8512 32.4206L32.4209 27.8509L44.4663 39.8963C45.7292 41.1591 45.7292 43.2029 44.4662 44.4659Z" fill="white"/>
</g>
<defs>
<clipPath id="clip0_104_15">
<rect width="49" height="49" fill="white"/>
</clipPath>
</defs>
</svg>
