<svg width="54" height="54" viewBox="0 0 54 54" fill="none" xmlns="http://www.w3.org/2000/svg">
<path d="M38.0094 19.3698C37.9478 19.0213 37.6156 18.7886 37.2667 18.8499L34.965 19.2556C34.6886 18.6072 34.3356 17.9998 33.9168 17.4441L35.4206 15.6524C35.5298 15.5221 35.5827 15.3539 35.5683 15.1845C35.5533 15.0149 35.4718 14.8586 35.3415 14.7491L33.3282 13.0597C33.1981 12.9505 33.0295 12.8974 32.86 12.9121C32.6908 12.9269 32.5343 13.0085 32.4248 13.1387L30.9222 14.9295C30.3058 14.6154 29.6465 14.3729 28.9553 14.2131V11.876C28.9553 11.5218 28.6684 11.2346 28.3143 11.2346H25.6864C25.3324 11.2346 25.0454 11.5218 25.0454 11.876V14.2131C24.3539 14.3729 23.6948 14.6153 23.0781 14.9295L21.5759 13.1387C21.348 12.8676 20.9438 12.8321 20.6727 13.0598L18.6594 14.7491C18.529 14.8586 18.4477 15.0149 18.4326 15.1845C18.4182 15.3539 18.471 15.5221 18.5803 15.6524L20.084 17.4441C19.6652 17.9998 19.3123 18.6074 19.0359 19.2556L16.7342 18.8499C16.386 18.7886 16.0531 19.0213 15.9915 19.3698L15.5351 21.9582C15.5057 22.1256 15.5437 22.2982 15.6415 22.4373C15.7389 22.5766 15.8876 22.6712 16.0551 22.7007L18.3586 23.1071C18.396 23.8205 18.5202 24.5109 18.7204 25.1683L16.6962 26.337C16.5488 26.4222 16.4416 26.5618 16.3975 26.7261C16.3536 26.8907 16.3767 27.0655 16.4616 27.2127L17.7756 29.4888C17.8606 29.6362 18.0006 29.7434 18.1651 29.7874C18.2195 29.8021 18.2752 29.8094 18.331 29.8094C18.4425 29.8094 18.553 29.7802 18.6513 29.7233L20.6776 28.5536C21.1545 29.0634 21.6925 29.5158 22.2797 29.8992L21.4797 32.0966C21.4217 32.2564 21.4291 32.4326 21.5011 32.5868C21.573 32.741 21.703 32.8598 21.8629 32.9182L24.3326 33.817C24.4033 33.8427 24.4777 33.8557 24.552 33.8557C24.6446 33.8557 24.737 33.8355 24.8226 33.7957C24.9768 33.7239 25.096 33.5938 25.1542 33.4338L25.9541 31.2362C26.297 31.2777 26.6462 31.2995 27.0003 31.2995C27.3544 31.2995 27.7037 31.2777 28.0466 31.2362L28.8466 33.4338C28.9049 33.5938 29.0239 33.7235 29.178 33.7957C29.2639 33.8355 29.356 33.8557 29.449 33.8557C29.5231 33.8557 29.5976 33.8426 29.6681 33.817L32.1379 32.9182C32.2979 32.8598 32.4276 32.741 32.4999 32.5865C32.5717 32.4323 32.5792 32.2564 32.5211 32.0966L31.7209 29.8992C32.3084 29.5158 32.8461 29.0638 33.3231 28.5536L35.3493 29.7233C35.4477 29.7802 35.5582 29.8093 35.6697 29.8093C35.7253 29.8093 35.7812 29.8021 35.8356 29.7874C36 29.7434 36.1398 29.6362 36.2249 29.4888L37.5388 27.2127C37.624 27.0656 37.647 26.8907 37.6032 26.7261C37.559 26.5618 37.4516 26.422 37.3044 26.337L35.2802 25.1683C35.48 24.5109 35.6045 23.8206 35.642 23.1071L37.9455 22.7007C38.1131 22.6712 38.2616 22.5766 38.3589 22.4373C38.4569 22.2981 38.4947 22.1256 38.4653 21.9582L38.0094 19.3698ZM27.0005 26.0711C25.0532 26.0711 23.4746 24.4927 23.4746 22.5454C23.4746 20.5982 25.0532 19.0197 27.0005 19.0197C28.9477 19.0197 30.5263 20.5982 30.5263 22.5454C30.5263 24.4927 28.9477 26.0711 27.0005 26.0711Z" fill="white"/>
<path d="M49.5027 3.37109H4.49769C2.01759 3.37109 0 5.38882 0 7.86892V37.2009C0 39.681 2.01759 41.6987 4.49769 41.6987H18.9984L16.2462 47.7677C15.962 48.3945 16.0154 49.1227 16.3883 49.701C16.7612 50.2795 17.4022 50.6289 18.0903 50.6289H35.9099C35.9099 50.6289 35.9118 50.6289 35.9126 50.6289C37.031 50.6289 37.9376 49.7223 37.9376 48.6039C37.9376 48.2673 37.8559 47.9494 37.71 47.6702L35.0016 41.6987H49.5023C51.9824 41.6987 54 39.681 54 37.2009V7.86892C54.0004 5.38882 51.9828 3.37109 49.5027 3.37109ZM49.9504 37.201C49.9504 37.4479 49.7495 37.6487 49.5027 37.6487H4.49769C4.25091 37.6487 4.05003 37.4479 4.05003 37.201V7.86892C4.05003 7.62201 4.25091 7.42112 4.49769 7.42112H49.5026C49.7494 7.42112 49.9502 7.62201 49.9502 7.86892L49.9504 37.201Z" fill="white"/>
</svg>
