<svg width="27" height="27" viewBox="0 0 27 27" fill="none" xmlns="http://www.w3.org/2000/svg">
<g clip-path="url(#clip0_34_815)">
<path d="M19.3037 10.8608L14.8369 24.6206L26.9892 10.8608H19.3037Z" fill="#E29AE3"/>
<path d="M9.3877 10.8608L13.5004 23.5298L17.6131 10.8608H9.3877Z" fill="#E29AE3"/>
<path d="M7.69632 10.8608H0.0108643L12.1631 24.6206L7.69632 10.8608Z" fill="#E29AE3"/>
<path d="M14.46 2.37939L18.4042 8.42117L20.3655 2.37939H14.46Z" fill="#E29AE3"/>
<path d="M21.822 3.104L19.8262 9.25209H27.0003L21.822 3.104Z" fill="#E29AE3"/>
<path d="M6.63379 2.37939L8.59514 8.42117L12.5393 2.37939H6.63379Z" fill="#E29AE3"/>
<path d="M13.5 3.85059L9.97388 9.25201H17.0262L13.5 3.85059Z" fill="#E29AE3"/>
<path d="M5.17825 3.104L0 9.25209H7.17409L5.17825 3.104Z" fill="#E29AE3"/>
</g>
<defs>
<clipPath id="clip0_34_815">
<rect width="27" height="27" fill="black"/>
</clipPath>
</defs>
</svg>
