<svg width="12" height="18" viewBox="0 0 12 18" fill='currentcolor' xmlns="http://www.w3.org/2000/svg">
<path d="M5.724 15.288C4.668 15.288 3.648 15.168 2.664 14.928C1.68 14.688 0.87 14.376 0.234 13.992L1.602 10.896C2.202 11.244 2.868 11.526 3.6 11.742C4.344 11.946 5.064 12.048 5.76 12.048C6.168 12.048 6.486 12.024 6.714 11.976C6.954 11.916 7.128 11.838 7.236 11.742C7.344 11.634 7.398 11.508 7.398 11.364C7.398 11.136 7.272 10.956 7.02 10.824C6.768 10.692 6.432 10.584 6.012 10.5C5.604 10.404 5.154 10.308 4.662 10.212C4.17 10.104 3.672 9.966 3.168 9.798C2.676 9.63 2.22 9.408 1.8 9.132C1.392 8.856 1.062 8.496 0.81 8.052C0.558 7.596 0.432 7.032 0.432 6.36C0.432 5.58 0.648 4.872 1.08 4.236C1.524 3.588 2.178 3.072 3.042 2.688C3.918 2.304 5.004 2.112 6.3 2.112C7.152 2.112 7.992 2.202 8.82 2.382C9.648 2.562 10.392 2.838 11.052 3.21L9.774 6.288C9.15 5.976 8.544 5.742 7.956 5.586C7.38 5.43 6.816 5.352 6.264 5.352C5.856 5.352 5.532 5.388 5.292 5.46C5.052 5.532 4.878 5.628 4.77 5.748C4.674 5.868 4.626 6 4.626 6.144C4.626 6.36 4.752 6.534 5.004 6.666C5.256 6.786 5.586 6.888 5.994 6.972C6.414 7.056 6.87 7.146 7.362 7.242C7.866 7.338 8.364 7.47 8.856 7.638C9.348 7.806 9.798 8.028 10.206 8.304C10.626 8.58 10.962 8.94 11.214 9.384C11.466 9.828 11.592 10.38 11.592 11.04C11.592 11.808 11.37 12.516 10.926 13.164C10.494 13.8 9.846 14.316 8.982 14.712C8.118 15.096 7.032 15.288 5.724 15.288ZM4.86 17.16V14.82H7.398V17.16H4.86ZM4.86 2.58V0.239999H7.398V2.58H4.86Z" fill="#7443FF"/>
</svg>
