<svg width="44" height="44" viewBox="0 0 44 44" fill="none" xmlns="http://www.w3.org/2000/svg">
<g clip-path="url(#clip0_34_806)">
<path d="M27.5556 24.8533V24.8937C27.5556 27.3873 25.8602 28.9081 23.3453 29.22V30.223C23.3453 30.966 22.743 31.5706 22.0001 31.5706C21.2549 31.5706 20.6503 30.966 20.6503 30.223V29.1085C19.3737 28.8687 18.1275 28.3712 17.0322 27.5842C16.6866 27.341 16.4435 26.8974 16.4435 26.4123C16.4435 25.6007 17.0907 24.9759 17.8991 24.9759C18.3034 24.9759 18.5881 25.1165 18.7907 25.2561C19.8612 26.0476 21.0354 26.5327 22.4122 26.5327C23.6877 26.5327 24.4577 26.0283 24.4577 25.1976V25.1572C24.4577 24.3658 23.9702 23.9651 21.6017 23.3549C18.7524 22.6277 16.9074 21.8373 16.9074 19.0229V18.9813C16.9074 16.7905 18.4158 15.2438 20.6494 14.8294V13.7734C20.6494 13.0304 21.2539 12.427 21.9991 12.427C22.7422 12.427 23.3443 13.0304 23.3443 13.7734V14.8405C24.4588 15.0228 25.4664 15.3989 26.3602 15.9652C26.7048 16.1667 27.0481 16.5933 27.0481 17.2013C27.0481 18.0107 26.4019 18.6389 25.5924 18.6389C25.2861 18.6389 25.0453 18.5578 24.8032 18.4159C23.7719 17.808 22.7972 17.4635 21.8243 17.4635C20.6299 17.4635 20.0041 18.0095 20.0041 18.6984V18.74C20.0041 19.6687 20.6108 19.9728 23.0604 20.601C25.9368 21.351 27.5556 22.3834 27.5556 24.8533ZM43.9995 19.4665V24.5323C43.9995 26.087 42.7398 27.3467 41.1851 27.3467H37.8056C37.567 28.0503 37.2799 28.7314 36.9534 29.3899L39.3479 31.7855C40.4466 32.8843 40.4466 34.6674 39.3479 35.7651L35.7658 39.3473C35.2163 39.8967 34.4958 40.1713 33.7755 40.1713C33.055 40.1713 32.3356 39.8966 31.7851 39.3473L29.3906 36.9528C28.7321 37.2793 28.0521 37.5674 27.3475 37.8061V41.1856C27.3475 42.7402 26.0877 44 24.5331 44H19.4673C17.9126 44 16.6528 42.7403 16.6528 41.1856V37.8049C15.9481 37.5651 15.2682 37.2781 14.6096 36.9517L12.2152 39.3461C11.6657 39.8956 10.9454 40.1703 10.2249 40.1703C9.50442 40.1703 8.78504 39.8956 8.2346 39.3461L4.65242 35.764C4.12442 35.236 3.82828 34.5199 3.82828 33.7737C3.82828 33.0272 4.12442 32.3112 4.65242 31.7834L7.04804 29.3878C6.72042 28.7293 6.43456 28.0481 6.19587 27.3446H2.81527C1.26061 27.3446 0.000854492 26.0849 0.000854492 24.5301V19.4643C0.000854492 17.9096 1.26053 16.6498 2.81527 16.6498H6.19594C6.43456 15.9463 6.72164 15.2663 7.04812 14.6076L4.65213 12.2122C3.55349 11.1135 3.55349 9.33138 4.65213 8.23267L8.23432 4.65048C9.33302 3.55178 11.1162 3.55178 12.2138 4.65048L14.6095 7.04597C15.268 6.71942 15.948 6.43241 16.6517 6.19264V2.81442C16.6517 1.25968 17.9114 0 19.466 0H24.5319C26.0865 0 27.3463 1.25968 27.3463 2.81442V6.19509C28.0499 6.43371 28.7298 6.72078 29.3883 7.04841L31.7829 4.65278C32.8815 3.55408 34.6647 3.55408 35.7623 4.65278L39.3445 8.23598C39.8725 8.76398 40.1687 9.47884 40.1687 10.2263C40.1687 10.9727 39.8715 11.6887 39.3445 12.2165L36.9501 14.611C37.2766 15.2696 37.5636 15.9495 37.8022 16.6532H41.1817C42.7398 16.6521 43.9995 17.9118 43.9995 19.4665ZM33.0707 22.0006C33.0707 15.8956 28.1038 10.9299 22 10.9299C15.8962 10.9299 10.9305 15.8967 10.9305 22.0006C10.9305 28.1044 15.8961 33.0701 22 33.0701C28.1038 33.0701 33.0707 28.1044 33.0707 22.0006Z" fill="white"/>
</g>
<defs>
<clipPath id="clip0_34_806">
<rect width="44" height="44" fill="white"/>
</clipPath>
</defs>
</svg>
