<svg width="32" height="32" viewBox="0 0 32 32" fill="none" xmlns="http://www.w3.org/2000/svg">
<path d="M29.1366 4.75H2.63674C2.07217 4.75 1.54747 4.89537 1.11035 5.18763L15.8869 17.1234L30.663 5.18763C30.2262 4.89512 29.701 4.75 29.1366 4.75Z" fill="white"/>
<path d="M31.4392 5.86621L18.9287 15.9478L31.4392 26.0293C31.7552 25.5816 31.9997 25.0367 31.9997 24.4477V7.44788C31.9997 6.85882 31.7552 6.31419 31.4392 5.86621Z" fill="white"/>
<path d="M0.447722 5.86621C0.131238 6.31393 0 6.85882 0 7.44788V24.4477C0 25.0365 0.131238 25.5814 0.447722 26.0293L12.9014 15.9478L0.447722 5.86621Z" fill="white"/>
<path d="M18.1341 16.5908L16.2012 18.1558C16.1093 18.23 15.9975 18.2671 15.8864 18.2671C15.7751 18.2671 15.6636 18.23 15.5717 18.1558L13.6392 16.5913L1.11035 26.7597C1.54722 27.0527 2.07192 27.2503 2.63649 27.2503H29.1364C29.7007 27.2503 30.2257 27.0527 30.6628 26.7597L18.1341 16.5908Z" fill="white"/>
</svg>
