<svg width="97" height="53" viewBox="0 0 97 53" fill="none" xmlns="http://www.w3.org/2000/svg">
<path d="M22.22 52.12C17.88 52.12 14.03 51.1167 10.67 49.11C7.35667 47.1033 4.74333 44.1867 2.83 40.36C0.963334 36.5333 0.0300001 31.9133 0.0300001 26.5C0.0300001 21.0867 0.963334 16.4667 2.83 12.64C4.74333 8.81333 7.35667 5.89666 10.67 3.89C14.03 1.88333 17.88 0.879999 22.22 0.879999C26.56 0.879999 30.3867 1.88333 33.7 3.89C37.06 5.89666 39.6733 8.81333 41.54 12.64C43.4533 16.4667 44.41 21.0867 44.41 26.5C44.41 31.9133 43.4533 36.5333 41.54 40.36C39.6733 44.1867 37.06 47.1033 33.7 49.11C30.3867 51.1167 26.56 52.12 22.22 52.12ZM22.22 38.89C23.2933 38.89 24.25 38.5167 25.09 37.77C25.93 37.0233 26.5833 35.74 27.05 33.92C27.5633 32.1 27.82 29.6267 27.82 26.5C27.82 23.3267 27.5633 20.8533 27.05 19.08C26.5833 17.26 25.93 15.9767 25.09 15.23C24.25 14.4833 23.2933 14.11 22.22 14.11C21.1467 14.11 20.19 14.4833 19.35 15.23C18.51 15.9767 17.8333 17.26 17.32 19.08C16.8533 20.8533 16.62 23.3267 16.62 26.5C16.62 29.6267 16.8533 32.1 17.32 33.92C17.8333 35.74 18.51 37.0233 19.35 37.77C20.19 38.5167 21.1467 38.89 22.22 38.89ZM48.0768 42.6V32.1L68.8668 2H85.8068L65.7868 32.1L58.0868 29.79H96.0268V42.6H48.0768ZM73.4868 51V42.6L73.9768 29.79V22.3H89.5168V51H73.4868Z" fill="#7443FF"/>
</svg>
