<svg width="32" height="32" viewBox="0 0 32 32" fill="none" xmlns="http://www.w3.org/2000/svg">
<path d="M16.0001 0C10.8295 0 6.62305 4.2065 6.62305 9.37706C6.62305 10.7871 6.92848 12.1423 7.53062 13.4059C7.54274 13.4329 7.55547 13.4594 7.56904 13.486L14.6539 27.2037C14.914 27.7072 15.4334 28.0235 16 28.0235C16.5667 28.0235 17.0861 27.7073 17.3461 27.2037L24.429 13.4897C24.4412 13.4661 24.4526 13.4422 24.4635 13.4181C25.0697 12.1509 25.3769 10.7916 25.3769 9.37706C25.3772 4.2065 21.1707 0 16.0001 0ZM16.0001 14.2852C13.2937 14.2852 11.092 12.0834 11.092 9.37706C11.092 6.67082 13.2937 4.46903 16.0001 4.46903C18.7065 4.46903 20.9083 6.67082 20.9083 9.37706C20.9083 12.0834 18.7065 14.2852 16.0001 14.2852Z" fill="white"/>
<path d="M19.6125 30.1816H12.3885C11.8864 30.1816 11.4795 30.5885 11.4795 31.0907C11.4795 31.5928 11.8864 31.9997 12.3885 31.9997H19.6125C20.1147 31.9997 20.5215 31.5928 20.5215 31.0907C20.5215 30.5885 20.1145 30.1816 19.6125 30.1816Z" fill="white"/>
</svg>
