<svg width="233" height="123" viewBox="0 0 233 123" fill="none" xmlns="http://www.w3.org/2000/svg">
<path d="M123.035 87.5781C119.845 87.5781 117.259 84.9918 117.259 81.7997V56.0335C117.259 52.8428 119.844 50.2551 123.035 50.2551C126.224 50.2551 128.811 52.8414 128.811 56.0335V81.7997C128.811 84.9904 126.224 87.5781 123.035 87.5781Z" fill="#C993E4"/>
<path d="M141.872 87.5781C138.682 87.5781 136.096 84.9918 136.096 81.7997V56.0335C136.096 52.8428 138.681 50.2551 141.872 50.2551C145.061 50.2551 147.648 52.8414 147.648 56.0335V81.7997C147.648 84.9904 145.061 87.5781 141.872 87.5781Z" fill="#C993E4"/>
<path d="M157.815 39.7199C157.815 36.5292 160.401 33.9415 163.592 33.9415H182.846C186.036 33.9415 188.622 36.5278 188.622 39.7199C188.622 42.9106 186.037 45.4984 182.846 45.4984H163.592C160.402 45.497 157.815 42.9106 157.815 39.7199Z" fill="#C993E4"/>
<path d="M163.592 87.578C160.402 87.578 157.815 84.9917 157.815 81.7995V39.7199C157.815 36.5292 160.401 33.9415 163.592 33.9415C166.781 33.9415 169.368 36.5278 169.368 39.7199V81.7995C169.368 84.9903 166.781 87.578 163.592 87.578Z" fill="#C993E4"/>
<path d="M123.035 47.5168C126.782 47.5168 129.82 44.4779 129.82 40.7291C129.82 36.9804 126.782 33.9415 123.035 33.9415C119.288 33.9415 116.25 36.9804 116.25 40.7291C116.25 44.4779 119.288 47.5168 123.035 47.5168Z" fill="#C993E4"/>
<path d="M141.872 47.5168C145.619 47.5168 148.657 44.4779 148.657 40.7291C148.657 36.9804 145.619 33.9415 141.872 33.9415C138.125 33.9415 135.087 36.9804 135.087 40.7291C135.087 44.4779 138.125 47.5168 141.872 47.5168Z" fill="#C993E4"/>
<path d="M47.6616 68.3846C47.6152 69.6032 47.5534 70.8205 47.5281 72.0391C47.5183 72.517 47.8176 72.9289 47.9314 73.3773C48.4765 75.5419 49.9687 76.9644 51.6716 78.2168C52.3109 78.6862 52.6509 79.3722 52.7591 80.0567C53.0359 81.8193 54.0039 83.1125 55.2502 84.2679C56.0679 85.0269 57.0234 85.4627 58.1263 85.6946C59.2279 85.9265 60.2648 86.396 61.2216 87.0102C63.0664 88.1938 65.077 88.7363 67.2633 88.5494C68.4154 88.451 69.3933 87.8649 70.3487 87.2801C71.3056 86.6954 71.9786 85.748 72.8469 85.0846C73.7264 84.4127 73.9175 83.7268 73.8121 82.7203C73.4918 79.6828 73.6983 76.6313 73.666 73.5853C73.6435 71.5008 73.7728 69.4135 73.711 67.3304C73.6154 64.0736 73.6759 60.8168 73.6618 57.5614C73.6421 53.1576 73.659 48.7525 73.6562 44.3487C73.6548 42.4961 73.7292 40.6463 73.7812 38.7966C73.8192 37.4402 73.6899 36.0795 73.6618 34.7203C73.6365 33.4988 73.6871 32.2788 73.8599 31.0643C73.9175 30.6595 73.8206 30.2941 73.4539 30.0017C73.0014 29.6419 72.5617 29.2497 72.1907 28.8097C71.3688 27.8357 70.2939 27.2073 69.2261 26.5762C68.369 26.0702 67.3771 26.0702 66.4202 26.014C64.3141 25.8889 62.4187 26.6128 60.7551 27.7977C59.8826 28.419 58.9061 28.4935 57.9816 28.7901C55.8923 29.4619 54.4072 30.7987 53.2888 32.6161C52.9754 33.1249 52.8982 33.7237 52.797 34.3014C52.6228 35.2952 52.1914 36.1934 51.8107 37.1126C51.7278 37.3122 51.5887 37.3614 51.3878 37.3994C49.6947 37.7185 48.6241 38.6869 48.2897 40.413C48.2658 40.5395 48.1562 40.6492 48.0845 40.7658C47.264 42.1194 47.337 43.5812 47.5998 45.0515C47.7543 45.9216 47.5295 46.668 46.9535 47.2949C46.4125 47.8838 46.0683 48.5782 45.6819 49.2613C45.2281 50.0625 45.0567 50.9115 45.0735 51.7984C45.0918 52.7163 44.8796 53.6608 45.3419 54.5408C45.6341 55.0974 45.8294 55.7229 46.2046 56.2134C46.8144 57.0118 46.5404 57.7343 46.1807 58.4722C46.0107 58.8208 45.696 59.1062 45.5667 59.4632C44.8262 61.5069 44.7152 63.5127 45.8168 65.5143C46.3619 66.5039 47.1235 67.3332 47.663 68.3143" stroke="#C993E4" stroke-width="2" stroke-miterlimit="10" stroke-linecap="round" stroke-linejoin="round"/>
<path d="M73.8655 30.2924C74.8097 29.7189 75.3521 28.735 76.1782 28.0378C78.6567 25.9477 82.3253 25.9828 85.2674 26.9162C88.277 27.872 91.7236 29.2087 93.6794 31.8245C93.8142 32.0045 93.9393 32.1914 94.0573 32.3826C94.7641 33.538 94.9748 34.8044 95.2811 36.0582C95.4736 36.8454 95.7869 37.3781 96.6974 37.4062C97.0936 37.4189 97.4575 37.6522 97.7526 37.9516C98.8035 39.0128 99.5173 40.1991 99.7632 41.7411C99.943 42.8698 99.9585 43.9409 99.7969 45.0527C99.6381 46.1463 100.275 46.9966 100.939 47.6966C101.689 48.4866 101.899 49.4522 102.25 50.3912C103.085 52.6219 102.277 54.5911 101.244 56.4971C100.941 57.0566 100.912 57.4923 101.264 57.9829C102.09 59.1411 102.157 60.5748 102.648 61.8567C102.762 62.1547 102.688 62.5736 102.586 62.8997C102.171 64.2139 102.032 65.635 100.99 66.7061C100.012 67.7125 99.6718 68.9536 99.8531 70.3536C100.099 72.2638 99.6466 73.9941 98.6139 75.6373C97.8987 76.7744 96.8632 77.5194 95.8361 78.2728C95.2333 78.7141 95.0732 79.289 94.9453 79.9131C94.625 81.4776 93.8157 82.7286 92.7057 83.8629C91.6898 84.9002 90.4843 85.4161 89.1144 85.7731C88.0662 86.0458 87.0982 86.5687 86.1442 87.1309C83.4816 88.701 80.6744 89.1831 77.8053 87.696C76.7107 87.1281 75.8312 86.2215 74.998 85.3135C74.6524 84.9368 74.2786 84.6205 73.8613 84.3408" stroke="#C993E4" stroke-width="2" stroke-miterlimit="10" stroke-linecap="round" stroke-linejoin="round"/>
<path d="M95.784 37.3207C95.3063 38.2217 94.9831 39.1269 95.0548 40.2036C95.1517 41.6499 95.0168 43.109 94.9803 44.5595C94.9522 45.6981 95.0829 46.8521 95.0815 48.0019C95.0787 49.7884 93.8535 51.0085 92.0606 51.0253C90.6317 51.0394 89.2042 51.083 87.7753 51.0886C86.9786 51.0914 86.1834 51.0464 85.3867 51.0225" stroke="#C993E4" stroke-width="2" stroke-miterlimit="10" stroke-linecap="round" stroke-linejoin="round"/>
<path d="M51.8066 37.391C52.3279 38.2807 52.6131 39.2112 52.5949 40.2724C52.5485 42.8953 52.5682 45.5196 52.5836 48.1438C52.5935 49.8545 53.7793 51.1012 55.4597 51.0422C57.0727 50.986 58.6913 51.0787 60.3071 51.0914C60.7989 51.0956 61.292 51.0647 61.7824 51.0197C62.1969 50.9818 62.4484 51.1518 62.631 51.5145C62.7912 51.8321 63.002 52.1259 63.1874 52.4309C63.748 53.353 64.5784 53.5849 65.576 53.3418C66.8855 53.0213 67.8536 51.5299 67.3421 50.248C66.9094 49.1629 64.9522 48.0286 63.668 49.1151C63.0329 49.6521 62.5875 50.279 62.2742 51.0253" stroke="#C993E4" stroke-width="2" stroke-miterlimit="10" stroke-linecap="round" stroke-linejoin="round"/>
<path d="M82.5771 75.7642C82.4773 75.2483 82.5377 74.7367 82.5602 74.2166C82.6178 72.9024 82.6501 71.5769 82.3551 70.2837C82.1429 69.356 80.61 68.4255 79.7656 68.441C77.5653 68.4804 75.3636 68.4452 73.1619 68.4565C71.2412 68.4663 69.3219 68.5267 67.4013 68.5141C66.2337 68.5071 65.1054 69.8705 65.0844 71.1243C65.0577 72.6241 65.0366 74.1225 65.0127 75.6222" stroke="#C993E4" stroke-width="2" stroke-miterlimit="10" stroke-linecap="round" stroke-linejoin="round"/>
<path d="M82.5067 75.7638C81.8688 76.0843 81.2436 76.4047 80.742 76.9515C79.7852 77.9945 80.0872 80.0973 81.3925 80.6595C82.1864 81.0025 83.1235 81.1163 83.8991 80.5948C84.6775 80.0706 84.9487 79.2989 84.8559 78.2911C84.7225 76.8503 83.7825 76.2909 82.6472 75.8341" stroke="#C993E4" stroke-width="2" stroke-miterlimit="10" stroke-linecap="round" stroke-linejoin="round"/>
<path d="M90.0932 64.3786C90.6862 64.73 91.2102 65.1629 91.7203 65.631C92.4424 66.293 92.6504 67.1167 92.3834 67.9544C92.0392 69.0311 91.1105 69.54 90.0216 69.6384C88.7613 69.7522 87.6147 68.3283 87.7665 66.979C87.8859 65.9149 88.5786 65.3049 89.3977 64.8129C89.9415 64.4868 90.1255 64.0961 90.1101 63.4649C90.082 62.2252 90.0019 60.977 90.1691 59.7415C90.2885 58.8545 90.6117 58.0505 91.4308 57.567C92.0097 57.2255 92.6925 57.158 93.3248 57.1622C95.5026 57.1763 97.6846 56.9977 99.8596 57.2732C100.18 57.314 100.514 57.2353 100.842 57.2114" stroke="#C993E4" stroke-width="2" stroke-miterlimit="10" stroke-linecap="round" stroke-linejoin="round"/>
<path d="M46.748 57.1397C49.1366 57.1397 51.5252 57.1524 53.9137 57.1341C55.1347 57.1243 56.1225 57.5136 56.9542 58.4582C57.491 59.0668 57.5345 59.7527 57.5514 60.4429C57.5837 61.7768 57.5205 63.1135 57.498 64.4489" stroke="#C993E4" stroke-width="2" stroke-miterlimit="10" stroke-linecap="round" stroke-linejoin="round"/>
<path d="M57.4263 64.5189C56.8277 64.7481 56.2812 65.0362 55.8007 65.4916C54.9717 66.2788 54.9099 68.2536 55.8751 69.0239C56.9401 69.8743 58.7287 69.7267 59.5352 68.6641C59.9005 68.182 59.864 66.3012 59.4622 65.8557C58.9269 65.2611 58.3396 64.727 57.5682 64.4473" stroke="#C993E4" stroke-width="2" stroke-miterlimit="10" stroke-linecap="round" stroke-linejoin="round"/>
<path d="M64.9438 75.6935C63.9532 76.1082 63.1973 76.7294 62.8236 77.7977C62.4513 78.8632 63.0301 80.4965 64.379 80.8352C65.5662 81.1332 67.182 80.3531 67.4574 79.2047C67.6162 78.5441 67.4405 77.8539 67.0359 77.3226C66.5188 76.6451 65.9006 76.0365 65.0843 75.6935" stroke="#C993E4" stroke-width="2" stroke-miterlimit="10" stroke-linecap="round" stroke-linejoin="round"/>
<path d="M85.3166 51.0251C85.1059 50.6273 84.912 50.2183 84.6816 49.8317C83.9538 48.6159 82.7412 48.5203 81.4584 48.8633C80.6421 49.0811 80.0449 50.3926 80.1897 51.3751C80.3414 52.4166 80.9694 53.215 81.7352 53.3429C83.0686 53.565 84.2305 53.1068 84.756 52.1482C84.9471 51.7982 85.1312 51.4454 85.318 51.094" stroke="#C993E4" stroke-width="2" stroke-miterlimit="10" stroke-linecap="round" stroke-linejoin="round"/>
<path d="M82.0851 38.5152C76.4889 38.6924 70.8912 38.4787 65.2949 38.5152" stroke="#C993E4" stroke-width="2" stroke-miterlimit="10" stroke-linecap="round" stroke-linejoin="round"/>
<path d="M87.2832 38.3749C87.3014 38.9765 87.2649 39.5387 86.8715 40.07C85.8008 41.5178 83.7017 40.9092 82.9247 39.6413C82.6873 39.2534 82.4302 38.8781 82.166 38.4747C82.6508 36.8456 83.7565 36.0683 85.4552 36.1976C86.3994 36.2693 87.1497 37.1042 87.352 38.306" stroke="#C993E4" stroke-width="2" stroke-miterlimit="10" stroke-linecap="round" stroke-linejoin="round"/>
<path d="M62.6255 36.1959C61.3286 36.1959 60.1765 37.156 60.0964 38.3044C60.029 39.2658 60.9071 40.4816 61.923 40.8344C62.7351 41.1156 63.7846 40.7361 64.3776 39.918C64.6361 39.561 64.8089 39.1365 65.0955 38.8062C65.3864 38.4702 65.0998 38.258 65.0042 38.0274C64.5799 36.9943 63.8886 36.2718 62.6943 36.1959" stroke="#C993E4" stroke-width="2" stroke-miterlimit="10" stroke-linecap="round" stroke-linejoin="round"/>
</svg>
