<svg width="444" height="318" viewBox="0 0 444 318" fill="none" xmlns="http://www.w3.org/2000/svg">
<path d="M233.397 193.785C227.32 193.785 222.391 188.86 222.391 182.782V133.718C222.391 127.642 227.317 122.715 233.397 122.715C239.475 122.715 244.404 127.64 244.404 133.718V182.782C244.404 188.858 239.475 193.785 233.397 193.785Z" fill="#E29AE3"/>
<path d="M269.294 193.785C263.216 193.785 258.287 188.86 258.287 182.782V133.718C258.287 127.642 263.214 122.715 269.294 122.715C275.372 122.715 280.301 127.64 280.301 133.718V182.782C280.301 188.858 275.372 193.785 269.294 193.785Z" fill="#E29AE3"/>
<path d="M299.675 102.654C299.675 96.5779 304.601 91.6504 310.682 91.6504H347.373C353.451 91.6504 358.38 96.5752 358.38 102.654C358.38 108.729 353.453 113.657 347.373 113.657H310.682C304.604 113.654 299.675 108.729 299.675 102.654Z" fill="#E29AE3"/>
<path d="M310.682 193.785C304.604 193.785 299.675 188.86 299.675 182.781V102.654C299.675 96.5779 304.601 91.6504 310.682 91.6504C316.759 91.6504 321.688 96.5752 321.688 102.654V182.781C321.688 188.857 316.759 193.785 310.682 193.785Z" fill="#E29AE3"/>
<path d="M233.398 117.5C240.539 117.5 246.327 111.714 246.327 104.575C246.327 97.4371 240.539 91.6504 233.398 91.6504C226.257 91.6504 220.469 97.4371 220.469 104.575C220.469 111.714 226.257 117.5 233.398 117.5Z" fill="#E29AE3"/>
<path d="M269.293 117.5C276.434 117.5 282.223 111.714 282.223 104.575C282.223 97.4371 276.434 91.6504 269.293 91.6504C262.153 91.6504 256.364 97.4371 256.364 104.575C256.364 111.714 262.153 117.5 269.293 117.5Z" fill="#E29AE3"/>
<path d="M89.7682 157.237C89.6798 159.557 89.562 161.875 89.5138 164.196C89.4951 165.106 90.0654 165.89 90.2822 166.744C91.3211 170.866 94.1645 173.574 97.4095 175.959C98.6277 176.853 99.2757 178.159 99.4818 179.463C100.009 182.819 101.854 185.281 104.229 187.482C105.787 188.927 107.608 189.757 109.71 190.198C111.809 190.64 113.785 191.534 115.608 192.704C119.123 194.957 122.955 195.99 127.121 195.634C129.316 195.447 131.18 194.331 133 193.217C134.824 192.104 136.106 190.3 137.761 189.037C139.437 187.757 139.801 186.451 139.6 184.535C138.99 178.751 139.383 172.94 139.322 167.14C139.279 163.171 139.525 159.196 139.407 155.229C139.225 149.028 139.34 142.826 139.314 136.627C139.276 128.242 139.308 119.853 139.303 111.468C139.3 107.94 139.442 104.418 139.541 100.895C139.614 98.3126 139.367 95.7217 139.314 93.1335C139.265 90.8075 139.362 88.4843 139.691 86.1718C139.801 85.4009 139.616 84.705 138.917 84.1483C138.055 83.4631 137.217 82.7164 136.51 81.8786C134.944 80.0238 132.896 78.8273 130.861 77.6256C129.228 76.662 127.338 76.662 125.514 76.5549C121.501 76.3167 117.889 77.6952 114.719 79.9515C113.056 81.1345 111.195 81.2764 109.434 81.8411C105.452 83.1205 102.622 85.6659 100.491 89.1267C99.8941 90.0956 99.7469 91.2358 99.5541 92.3358C99.2221 94.2282 98.4001 95.9385 97.6746 97.6889C97.5166 98.069 97.2515 98.1627 96.8687 98.2349C93.6424 98.8425 91.6022 100.687 90.965 103.973C90.9195 104.214 90.7106 104.423 90.5741 104.645C89.0105 107.223 89.1497 110.006 89.6504 112.806C89.9449 114.463 89.5165 115.884 88.4188 117.078C87.388 118.199 86.732 119.521 85.9957 120.822C85.1309 122.348 84.8043 123.965 84.8364 125.653C84.8712 127.401 84.4669 129.2 85.3478 130.875C85.9047 131.935 86.2768 133.126 86.9917 134.06C88.1537 135.581 87.6316 136.956 86.9462 138.362C86.6222 139.025 86.0225 139.569 85.7762 140.249C84.3652 144.14 84.1537 147.96 86.2527 151.771C87.2916 153.655 88.7427 155.235 89.7709 157.103" stroke="#E29AE3" stroke-width="4" stroke-miterlimit="10" stroke-linecap="round" stroke-linejoin="round"/>
<path d="M139.701 84.7019C141.501 83.6099 142.534 81.7363 144.108 80.4088C148.831 76.4287 155.822 76.4957 161.429 78.2729C167.164 80.0929 173.731 82.6383 177.458 87.6194C177.715 87.962 177.954 88.3179 178.178 88.6819C179.525 90.8821 179.927 93.2936 180.51 95.6811C180.877 97.18 181.474 98.1944 183.209 98.2479C183.964 98.272 184.658 98.7163 185.22 99.2864C187.223 101.307 188.583 103.566 189.051 106.502C189.394 108.652 189.424 110.691 189.116 112.808C188.813 114.891 190.026 116.51 191.292 117.843C192.722 119.347 193.121 121.186 193.79 122.974C195.381 127.221 193.841 130.971 191.873 134.601C191.295 135.666 191.242 136.496 191.911 137.43C193.485 139.635 193.614 142.365 194.548 144.806C194.765 145.374 194.626 146.171 194.43 146.792C193.64 149.295 193.375 152.001 191.389 154.04C189.525 155.957 188.877 158.32 189.223 160.986C189.691 164.623 188.829 167.918 186.861 171.047C185.498 173.213 183.525 174.631 181.568 176.066C180.419 176.906 180.114 178.001 179.871 179.189C179.26 182.168 177.718 184.55 175.603 186.71C173.667 188.686 171.37 189.668 168.759 190.348C166.762 190.867 164.917 191.863 163.099 192.933C158.026 195.923 152.676 196.841 147.209 194.009C145.123 192.928 143.447 191.202 141.859 189.473C141.201 188.755 140.489 188.153 139.693 187.62" stroke="#E29AE3" stroke-width="4" stroke-miterlimit="10" stroke-linecap="round" stroke-linejoin="round"/>
<path d="M181.469 98.085C180.559 99.8006 179.943 101.524 180.079 103.575C180.264 106.329 180.007 109.107 179.938 111.869C179.884 114.037 180.133 116.235 180.13 118.424C180.125 121.826 177.79 124.149 174.374 124.181C171.651 124.208 168.931 124.291 166.208 124.302C164.69 124.307 163.174 124.221 161.656 124.176" stroke="#E29AE3" stroke-width="4" stroke-miterlimit="10" stroke-linecap="round" stroke-linejoin="round"/>
<path d="M97.667 98.2188C98.6603 99.913 99.2038 101.685 99.169 103.706C99.0807 108.7 99.1181 113.697 99.1476 118.694C99.1663 121.952 101.426 124.326 104.628 124.213C107.702 124.106 110.786 124.283 113.865 124.307C114.802 124.315 115.742 124.256 116.677 124.171C117.466 124.098 117.946 124.422 118.294 125.113C118.599 125.718 119.001 126.277 119.354 126.858C120.422 128.614 122.005 129.055 123.906 128.592C126.401 127.982 128.246 125.142 127.271 122.701C126.446 120.635 122.717 118.475 120.27 120.544C119.059 121.566 118.211 122.76 117.614 124.181" stroke="#E29AE3" stroke-width="4" stroke-miterlimit="10" stroke-linecap="round" stroke-linejoin="round"/>
<path d="M156.301 171.289C156.111 170.307 156.226 169.332 156.269 168.342C156.379 165.839 156.441 163.315 155.878 160.853C155.474 159.087 152.553 157.315 150.944 157.344C146.751 157.419 142.556 157.352 138.36 157.374C134.7 157.392 131.043 157.507 127.383 157.483C125.158 157.47 123.008 160.066 122.968 162.454C122.917 165.31 122.877 168.163 122.831 171.019" stroke="#E29AE3" stroke-width="4" stroke-miterlimit="10" stroke-linecap="round" stroke-linejoin="round"/>
<path d="M156.168 171.288C154.952 171.898 153.761 172.509 152.805 173.55C150.982 175.536 151.557 179.54 154.045 180.61C155.557 181.264 157.343 181.48 158.821 180.487C160.305 179.489 160.821 178.02 160.645 176.101C160.39 173.357 158.599 172.292 156.436 171.422" stroke="#E29AE3" stroke-width="4" stroke-miterlimit="10" stroke-linecap="round" stroke-linejoin="round"/>
<path d="M170.626 149.608C171.756 150.278 172.754 151.102 173.726 151.993C175.102 153.254 175.499 154.822 174.99 156.418C174.334 158.468 172.564 159.437 170.489 159.624C168.087 159.841 165.903 157.129 166.192 154.56C166.419 152.534 167.739 151.372 169.3 150.435C170.336 149.814 170.687 149.07 170.658 147.869C170.604 145.508 170.452 143.131 170.77 140.778C170.998 139.09 171.614 137.559 173.175 136.638C174.278 135.987 175.579 135.859 176.784 135.867C180.934 135.894 185.092 135.554 189.236 136.078C189.847 136.156 190.484 136.006 191.108 135.961" stroke="#E29AE3" stroke-width="4" stroke-miterlimit="10" stroke-linecap="round" stroke-linejoin="round"/>
<path d="M88.0283 135.825C92.5799 135.825 97.1315 135.849 101.683 135.814C104.01 135.795 105.892 136.536 107.477 138.335C108.5 139.494 108.583 140.8 108.615 142.114C108.676 144.654 108.556 147.2 108.513 149.743" stroke="#E29AE3" stroke-width="4" stroke-miterlimit="10" stroke-linecap="round" stroke-linejoin="round"/>
<path d="M108.376 149.876C107.236 150.312 106.194 150.861 105.279 151.728C103.699 153.227 103.581 156.987 105.42 158.454C107.45 160.073 110.858 159.792 112.395 157.769C113.091 156.851 113.022 153.27 112.256 152.421C111.236 151.289 110.117 150.272 108.647 149.739" stroke="#E29AE3" stroke-width="4" stroke-miterlimit="10" stroke-linecap="round" stroke-linejoin="round"/>
<path d="M122.7 171.154C120.813 171.944 119.372 173.127 118.66 175.161C117.951 177.19 119.054 180.3 121.624 180.945C123.886 181.513 126.966 180.027 127.49 177.84C127.793 176.582 127.458 175.268 126.687 174.256C125.702 172.966 124.524 171.807 122.968 171.154" stroke="#E29AE3" stroke-width="4" stroke-miterlimit="10" stroke-linecap="round" stroke-linejoin="round"/>
<path d="M161.523 124.181C161.122 123.423 160.752 122.645 160.313 121.908C158.926 119.593 156.615 119.411 154.171 120.064C152.615 120.479 151.477 122.976 151.753 124.847C152.042 126.831 153.239 128.351 154.698 128.594C157.239 129.017 159.453 128.145 160.455 126.319C160.819 125.653 161.17 124.981 161.526 124.312" stroke="#E29AE3" stroke-width="4" stroke-miterlimit="10" stroke-linecap="round" stroke-linejoin="round"/>
<path d="M155.365 100.36C144.701 100.697 134.034 100.29 123.37 100.36" stroke="#E29AE3" stroke-width="4" stroke-miterlimit="10" stroke-linecap="round" stroke-linejoin="round"/>
<path d="M165.271 100.092C165.305 101.238 165.236 102.308 164.486 103.32C162.446 106.077 158.446 104.918 156.965 102.504C156.513 101.765 156.023 101.05 155.52 100.282C156.443 97.1802 158.55 95.7001 161.787 95.9463C163.587 96.0828 165.016 97.6727 165.402 99.9611" stroke="#E29AE3" stroke-width="4" stroke-miterlimit="10" stroke-linecap="round" stroke-linejoin="round"/>
<path d="M118.282 95.9434C115.811 95.9434 113.616 97.7714 113.463 99.9582C113.334 101.789 115.008 104.104 116.944 104.776C118.491 105.311 120.491 104.589 121.621 103.031C122.114 102.351 122.443 101.543 122.989 100.914C123.543 100.274 122.997 99.8698 122.815 99.4309C122.007 97.4636 120.689 96.0879 118.414 95.9434" stroke="#E29AE3" stroke-width="4" stroke-miterlimit="10" stroke-linecap="round" stroke-linejoin="round"/>
<path d="M83.4689 258V229.3H90.1109V258H83.4689ZM96.922 258V229.3H102.416L119.349 249.964H116.684V229.3H123.244V258H117.791L100.817 237.336H103.482V258H96.922ZM139.464 258.492C137.168 258.492 134.968 258.191 132.863 257.59C130.759 256.961 129.064 256.155 127.779 255.171L130.034 250.169C131.264 251.044 132.713 251.768 134.38 252.342C136.075 252.889 137.783 253.162 139.505 253.162C140.817 253.162 141.87 253.039 142.662 252.793C143.482 252.52 144.084 252.151 144.466 251.686C144.849 251.221 145.04 250.688 145.04 250.087C145.04 249.322 144.74 248.72 144.138 248.283C143.537 247.818 142.744 247.449 141.76 247.176C140.776 246.875 139.683 246.602 138.48 246.356C137.305 246.083 136.116 245.755 134.913 245.372C133.738 244.989 132.658 244.497 131.674 243.896C130.69 243.295 129.884 242.502 129.255 241.518C128.654 240.534 128.353 239.277 128.353 237.746C128.353 236.106 128.791 234.616 129.665 233.277C130.567 231.91 131.907 230.831 133.683 230.038C135.487 229.218 137.742 228.808 140.448 228.808C142.252 228.808 144.029 229.027 145.778 229.464C147.528 229.874 149.072 230.503 150.411 231.35L148.361 236.393C147.022 235.628 145.683 235.067 144.343 234.712C143.004 234.329 141.692 234.138 140.407 234.138C139.123 234.138 138.07 234.288 137.25 234.589C136.43 234.89 135.843 235.286 135.487 235.778C135.132 236.243 134.954 236.789 134.954 237.418C134.954 238.156 135.255 238.757 135.856 239.222C136.458 239.659 137.25 240.015 138.234 240.288C139.218 240.561 140.298 240.835 141.473 241.108C142.676 241.381 143.865 241.696 145.04 242.051C146.243 242.406 147.336 242.885 148.32 243.486C149.304 244.087 150.097 244.88 150.698 245.864C151.327 246.848 151.641 248.092 151.641 249.595C151.641 251.208 151.19 252.684 150.288 254.023C149.386 255.362 148.033 256.442 146.229 257.262C144.453 258.082 142.198 258.492 139.464 258.492ZM170.12 258.492C167.851 258.492 165.747 258.123 163.806 257.385C161.893 256.647 160.225 255.608 158.804 254.269C157.41 252.93 156.317 251.358 155.524 249.554C154.759 247.75 154.376 245.782 154.376 243.65C154.376 241.518 154.759 239.55 155.524 237.746C156.317 235.942 157.424 234.37 158.845 233.031C160.266 231.692 161.934 230.653 163.847 229.915C165.76 229.177 167.838 228.808 170.079 228.808C172.348 228.808 174.425 229.177 176.311 229.915C178.224 230.653 179.878 231.692 181.272 233.031C182.693 234.37 183.8 235.942 184.593 237.746C185.386 239.523 185.782 241.491 185.782 243.65C185.782 245.782 185.386 247.764 184.593 249.595C183.8 251.399 182.693 252.971 181.272 254.31C179.878 255.622 178.224 256.647 176.311 257.385C174.425 258.123 172.361 258.492 170.12 258.492ZM170.079 252.834C171.364 252.834 172.539 252.615 173.605 252.178C174.698 251.741 175.655 251.112 176.475 250.292C177.295 249.472 177.924 248.502 178.361 247.381C178.826 246.26 179.058 245.017 179.058 243.65C179.058 242.283 178.826 241.04 178.361 239.919C177.924 238.798 177.295 237.828 176.475 237.008C175.682 236.188 174.739 235.559 173.646 235.122C172.553 234.685 171.364 234.466 170.079 234.466C168.794 234.466 167.605 234.685 166.512 235.122C165.446 235.559 164.503 236.188 163.683 237.008C162.863 237.828 162.221 238.798 161.756 239.919C161.319 241.04 161.1 242.283 161.1 243.65C161.1 244.989 161.319 246.233 161.756 247.381C162.221 248.502 162.849 249.472 163.642 250.292C164.462 251.112 165.419 251.741 166.512 252.178C167.605 252.615 168.794 252.834 170.079 252.834ZM203.525 258.492C199.452 258.492 196.268 257.358 193.972 255.089C191.676 252.82 190.528 249.581 190.528 245.372V229.3H197.17V245.126C197.17 247.859 197.73 249.827 198.851 251.03C199.971 252.233 201.543 252.834 203.566 252.834C205.588 252.834 207.16 252.233 208.281 251.03C209.401 249.827 209.962 247.859 209.962 245.126V229.3H216.522V245.372C216.522 249.581 215.374 252.82 213.078 255.089C210.782 257.358 207.597 258.492 203.525 258.492ZM223.085 258V229.3H235.508C238.077 229.3 240.291 229.724 242.15 230.571C244.009 231.391 245.444 232.58 246.455 234.138C247.466 235.696 247.972 237.555 247.972 239.714C247.972 241.846 247.466 243.691 246.455 245.249C245.444 246.78 244.009 247.955 242.15 248.775C240.291 249.595 238.077 250.005 235.508 250.005H226.775L229.727 247.094V258H223.085ZM241.33 258L234.155 247.586H241.248L248.505 258H241.33ZM229.727 247.832L226.775 244.716H235.139C237.189 244.716 238.72 244.279 239.731 243.404C240.742 242.502 241.248 241.272 241.248 239.714C241.248 238.129 240.742 236.899 239.731 236.024C238.72 235.149 237.189 234.712 235.139 234.712H226.775L229.727 231.555V247.832ZM266.97 258.492C264.756 258.492 262.692 258.137 260.779 257.426C258.893 256.688 257.253 255.649 255.859 254.31C254.465 252.971 253.371 251.399 252.579 249.595C251.813 247.791 251.431 245.809 251.431 243.65C251.431 241.491 251.813 239.509 252.579 237.705C253.371 235.901 254.465 234.329 255.859 232.99C257.28 231.651 258.934 230.626 260.82 229.915C262.706 229.177 264.769 228.808 267.011 228.808C269.498 228.808 271.739 229.245 273.735 230.12C275.757 230.967 277.452 232.225 278.819 233.892L274.555 237.828C273.571 236.707 272.477 235.874 271.275 235.327C270.072 234.753 268.76 234.466 267.339 234.466C265.999 234.466 264.769 234.685 263.649 235.122C262.528 235.559 261.558 236.188 260.738 237.008C259.918 237.828 259.275 238.798 258.811 239.919C258.373 241.04 258.155 242.283 258.155 243.65C258.155 245.017 258.373 246.26 258.811 247.381C259.275 248.502 259.918 249.472 260.738 250.292C261.558 251.112 262.528 251.741 263.649 252.178C264.769 252.615 265.999 252.834 267.339 252.834C268.76 252.834 270.072 252.561 271.275 252.014C272.477 251.44 273.571 250.579 274.555 249.431L278.819 253.367C277.452 255.034 275.757 256.305 273.735 257.18C271.739 258.055 269.484 258.492 266.97 258.492ZM289.413 240.862H303.23V246.028H289.413V240.862ZM289.905 252.67H305.526V258H283.304V229.3H304.993V234.63H289.905V252.67ZM323.693 258V229.3H326.727V258H323.693ZM341.641 258V231.924H331.555V229.3H354.761V231.924H344.675V258H341.641Z" fill="#7443FF"/>
</svg>
