<svg width="72" height="53" viewBox="0 0 72 53" fill="none" xmlns="http://www.w3.org/2000/svg">
<path d="M10.67 49.11L9.1159 51.6761L9.12382 51.6809L9.13178 51.6856L10.67 49.11ZM2.83 40.36L0.133695 41.6753L0.140142 41.6885L0.146719 41.7016L2.83 40.36ZM2.83 12.64L0.146719 11.2984L0.140142 11.3115L0.133695 11.3247L2.83 12.64ZM10.67 3.89L9.13178 1.31437L9.12382 1.31912L9.1159 1.32392L10.67 3.89ZM33.7 3.89L32.1459 6.45608L32.1538 6.46088L32.1618 6.46563L33.7 3.89ZM41.54 12.64L38.8437 13.9553L38.8501 13.9685L38.8567 13.9816L41.54 12.64ZM41.54 40.36L38.8567 39.0184L38.8501 39.0315L38.8437 39.0447L41.54 40.36ZM33.7 49.11L32.1618 46.5344L32.1538 46.5391L32.1459 46.5439L33.7 49.11ZM27.05 33.92L24.1627 33.1056L24.1529 33.1401L24.144 33.1749L27.05 33.92ZM27.05 19.08L24.144 19.8251L24.1555 19.8698L24.1683 19.9142L27.05 19.08ZM25.09 15.23L27.0831 12.9878L27.0831 12.9878L25.09 15.23ZM19.35 15.23L17.3569 12.9878L17.3569 12.9878L19.35 15.23ZM17.32 19.08L14.4327 18.2656L14.4255 18.291L14.4188 18.3165L17.32 19.08ZM17.32 33.92L14.414 34.6651L14.4229 34.6999L14.4327 34.7344L17.32 33.92ZM22.22 49.12C18.361 49.12 15.0537 48.2338 12.2082 46.5344L9.13178 51.6856C13.0063 53.9996 17.399 55.12 22.22 55.12V49.12ZM12.2241 46.5439C9.44501 44.8608 7.20072 42.3932 5.51328 39.0184L0.146719 41.7016C2.28595 45.9801 5.26832 49.3459 9.1159 51.6761L12.2241 46.5439ZM5.52631 39.0447C3.90615 35.7234 3.03 31.5775 3.03 26.5H-2.97C-2.97 32.2491 -1.97948 37.3433 0.133695 41.6753L5.52631 39.0447ZM3.03 26.5C3.03 21.4225 3.90615 17.2766 5.52631 13.9553L0.133695 11.3247C-1.97948 15.6567 -2.97 20.7509 -2.97 26.5H3.03ZM5.51328 13.9816C7.20072 10.6068 9.44501 8.13919 12.2241 6.45608L9.1159 1.32392C5.26832 3.65414 2.28595 7.01989 0.146719 11.2984L5.51328 13.9816ZM12.2082 6.46563C15.0537 4.76622 18.361 3.88 22.22 3.88V-2.12C17.399 -2.12 13.0063 -0.999561 9.13178 1.31437L12.2082 6.46563ZM22.22 3.88C26.0798 3.88 29.356 4.7664 32.1459 6.45608L35.2541 1.32392C31.4174 -0.999735 27.0402 -2.12 22.22 -2.12V3.88ZM32.1618 6.46563C34.9776 8.14729 37.2091 10.6043 38.8437 13.9553L44.2363 11.3247C42.1376 7.02239 39.1424 3.64603 35.2382 1.31437L32.1618 6.46563ZM38.8567 13.9816C40.514 17.2961 41.41 21.4322 41.41 26.5H47.41C47.41 20.7412 46.3927 15.6372 44.2233 11.2984L38.8567 13.9816ZM41.41 26.5C41.41 31.5678 40.514 35.7039 38.8567 39.0184L44.2233 41.7016C46.3927 37.3628 47.41 32.2588 47.41 26.5H41.41ZM38.8437 39.0447C37.2091 42.3957 34.9776 44.8527 32.1618 46.5344L35.2382 51.6856C39.1424 49.354 42.1376 45.9776 44.2363 41.6753L38.8437 39.0447ZM32.1459 46.5439C29.356 48.2336 26.0798 49.12 22.22 49.12V55.12C27.0402 55.12 31.4174 53.9997 35.2541 51.6761L32.1459 46.5439ZM22.22 41.89C24.0651 41.89 25.7222 41.2219 27.0831 40.0122L23.0969 35.5278C22.7778 35.8115 22.5216 35.89 22.22 35.89V41.89ZM27.0831 40.0122C28.5791 38.6824 29.4305 36.7146 29.956 34.6651L24.144 33.1749C23.7362 34.7654 23.2809 35.3642 23.0969 35.5278L27.0831 40.0122ZM29.9374 34.7344C30.5582 32.5333 30.82 29.7476 30.82 26.5H24.82C24.82 29.5057 24.5685 31.6666 24.1627 33.1056L29.9374 34.7344ZM30.82 26.5C30.82 23.2158 30.56 20.4165 29.9317 18.2458L24.1683 19.9142C24.5666 21.2902 24.82 23.4375 24.82 26.5H30.82ZM29.956 18.3349C29.4305 16.2854 28.5791 14.3176 27.0831 12.9878L23.0969 17.4722C23.2809 17.6358 23.7362 18.2346 24.144 19.8251L29.956 18.3349ZM27.0831 12.9878C25.7222 11.7781 24.0651 11.11 22.22 11.11V17.11C22.5216 17.11 22.7778 17.1885 23.0969 17.4722L27.0831 12.9878ZM22.22 11.11C20.3749 11.11 18.7178 11.7781 17.3569 12.9878L21.3431 17.4722C21.6622 17.1885 21.9184 17.11 22.22 17.11V11.11ZM17.3569 12.9878C15.8867 14.2946 15.0069 16.2296 14.4327 18.2656L20.2074 19.8944C20.6598 18.2904 21.1333 17.6587 21.3431 17.4722L17.3569 12.9878ZM14.4188 18.3165C13.8558 20.4559 13.62 23.2272 13.62 26.5H19.62C19.62 23.4262 19.8509 21.2507 20.2212 19.8435L14.4188 18.3165ZM13.62 26.5C13.62 29.7355 13.8574 32.4942 14.414 34.6651L20.226 33.1749C19.8493 31.7058 19.62 29.5179 19.62 26.5H13.62ZM14.4327 34.7344C15.0069 36.7704 15.8867 38.7054 17.3569 40.0122L21.3431 35.5278C21.1333 35.3413 20.6598 34.7096 20.2074 33.1056L14.4327 34.7344ZM17.3569 40.0122C18.7178 41.2219 20.3749 41.89 22.22 41.89V35.89C21.9184 35.89 21.6622 35.8115 21.3431 35.5278L17.3569 40.0122ZM54.5332 51H51.5332V54H54.5332V51ZM54.5332 7.74L56.6 5.56554L51.5332 0.749556V7.74H54.5332ZM61.6032 14.46V17.46H69.114L63.67 12.2855L61.6032 14.46ZM46.1332 14.46H43.1332V17.46H46.1332V14.46ZM46.1332 2V-1H43.1332V2H46.1332ZM71.0532 2H74.0532V-1H71.0532V2ZM71.0532 51V54H74.0532V51H71.0532ZM57.5332 51V7.74H51.5332V51H57.5332ZM52.4664 9.91446L59.5364 16.6345L63.67 12.2855L56.6 5.56554L52.4664 9.91446ZM61.6032 11.46H46.1332V17.46H61.6032V11.46ZM49.1332 14.46V2H43.1332V14.46H49.1332ZM46.1332 5H71.0532V-1H46.1332V5ZM68.0532 2V51H74.0532V2H68.0532ZM71.0532 48H54.5332V54H71.0532V48Z" fill="#7443FF"/>
</svg>
