<svg width="38" height="38" viewBox="0 0 38 38" fill="none" xmlns="http://www.w3.org/2000/svg">
<path d="M10.9533 26.932C13.514 29.4933 16.4801 31.9417 17.6521 30.7692C19.3309 29.091 20.3654 27.6292 24.0652 30.6027C27.765 33.5773 24.9235 35.5594 23.2975 37.1859C21.4212 39.0623 14.427 37.2844 7.51355 30.3717C0.600854 23.4583 -1.17764 16.4641 0.699892 14.5871C2.32644 12.9606 4.30855 10.1196 7.28133 13.82C10.2554 17.5192 8.79417 18.5543 7.11543 20.2325C5.94413 21.4051 8.39185 24.3706 10.9533 26.932ZM38 9.34957C38 14.4504 32.7753 18.5854 26.3305 18.5854C25.6862 18.5854 25.0584 18.5331 24.4426 18.4541C22.689 20.2491 20.0104 21.1212 16.9677 21.3485C18.2137 20.1025 19.1053 18.2942 19.3849 16.7594C16.5232 15.0764 14.6603 12.3886 14.6603 9.3501C14.6603 4.24932 19.8852 0.114258 26.33 0.114258C32.7747 0.114258 38 4.24869 38 9.34957ZM19.0366 9.34957C19.0366 10.3568 19.8529 11.173 20.8601 11.173C21.8673 11.173 22.6836 10.3568 22.6836 9.34957C22.6836 8.34237 21.8672 7.5261 20.8601 7.5261C19.853 7.5261 19.0366 8.34237 19.0366 9.34957ZM28.1539 9.34957C28.1539 8.34237 27.3377 7.5261 26.3306 7.5261C25.3235 7.5261 24.5071 8.34237 24.5071 9.34957C24.5071 10.3568 25.3235 11.173 26.3306 11.173C27.3377 11.173 28.1539 10.3567 28.1539 9.34957ZM33.6243 9.34957C33.6243 8.34237 32.8081 7.5261 31.801 7.5261C30.7939 7.5261 29.9775 8.34237 29.9775 9.34957C29.9775 10.3568 30.7939 11.173 31.801 11.173C32.8081 11.173 33.6243 10.3567 33.6243 9.34957Z" fill="white"/>
</svg>
