<svg width="11" height="11" viewBox="0 0 11 11" fill="none" xmlns="http://www.w3.org/2000/svg">
<path d="M8.32826 5.2481L3.18359 0.10396C3.11481 0.0341201 3.02525 0 2.93248 0C2.84132 0 2.74962 0.0341201 2.68032 0.10396L2.67339 0.110357C2.60621 0.178064 2.56836 0.269762 2.56836 0.363592V2.85969C2.56836 2.95459 2.60621 3.04522 2.67339 3.11079L5.06233 5.50027L2.67339 7.88814C2.60621 7.95531 2.56836 8.04488 2.56836 8.14138V10.6364C2.56836 10.7324 2.60621 10.8251 2.67339 10.8896L2.68032 10.895C2.74642 10.9627 2.83706 11 2.93248 11C3.02791 11 3.11801 10.9627 3.18519 10.895L8.32826 5.75244C8.46687 5.61436 8.46687 5.38671 8.32826 5.2481Z" fill="white"/>
</svg>
