<svg width="11" height="11" viewBox="0 0 11 11" fill="none" xmlns="http://www.w3.org/2000/svg">
<path d="M8.33021 5.2481L3.18554 0.10396C3.11677 0.0341201 3.0272 0 2.93444 0C2.84327 0 2.75158 0.0341201 2.68227 0.10396L2.67534 0.110357C2.60816 0.178064 2.57031 0.269762 2.57031 0.363592V2.85969C2.57031 2.95459 2.60816 3.04522 2.67534 3.11079L5.06428 5.50027L2.67534 7.88814C2.60816 7.95531 2.57031 8.04488 2.57031 8.14138V10.6364C2.57031 10.7324 2.60816 10.8251 2.67534 10.8896L2.68227 10.895C2.74838 10.9627 2.83901 11 2.93444 11C3.02987 11 3.11997 10.9627 3.18714 10.895L8.33021 5.75244C8.46882 5.61436 8.46882 5.38671 8.33021 5.2481Z" fill="#7443FF"/>
</svg>
