<svg width="47" height="47" viewBox="0 0 47 47" fill="none" xmlns="http://www.w3.org/2000/svg">
<g clip-path="url(#clip0_34_809)">
<path d="M23.5 22.1484C22.7548 22.1484 22.1484 22.7547 22.1484 23.4999C22.1484 24.2451 22.7548 24.8513 23.5 24.8513C24.2452 24.8513 24.8515 24.2451 24.8515 23.4999C24.8515 22.7547 24.2452 22.1484 23.5 22.1484Z" fill="#E29AE3"/>
<path d="M37.3519 18.8845L28.8548 17.176C28.5241 17.1096 28.2389 16.9024 28.0735 16.6084L23.8231 9.05516C23.7575 8.93869 23.6337 8.86621 23.5 8.86621C23.3663 8.86621 23.2425 8.93869 23.1768 9.05532L18.9264 16.6084C18.7611 16.9024 18.4759 17.1096 18.1452 17.176L9.64812 18.8845C9.51694 18.9109 9.4098 19.0063 9.36834 19.1334C9.3272 19.2606 9.35774 19.4005 9.44826 19.4988L15.3185 25.8756C15.5469 26.1238 15.6557 26.4591 15.6168 26.7941L14.616 35.4033C14.6005 35.5363 14.6583 35.6676 14.7664 35.7463C14.873 35.8238 15.0178 35.8391 15.1383 35.7833L23.0172 32.1708C23.3239 32.0301 23.6763 32.0301 23.983 32.1708L31.8616 35.7831C31.9826 35.839 32.1269 35.8236 32.2339 35.7461C32.3418 35.6676 32.3996 35.5363 32.3841 35.4038L31.3833 26.7941C31.3444 26.4591 31.4533 26.1238 31.6816 25.8756L37.5516 19.499C37.6422 19.4005 37.6728 19.2606 37.6316 19.1336C37.5902 19.0063 37.483 18.9109 37.3519 18.8845ZM23.5 27.1684C21.4772 27.1684 19.8315 25.5227 19.8315 23.5C19.8315 21.4772 21.4772 19.8316 23.5 19.8316C25.5227 19.8316 27.1684 21.4772 27.1684 23.5C27.1684 25.5227 25.5227 27.1684 23.5 27.1684Z" fill="#E29AE3"/>
<path d="M23.5 0C10.5421 0 0 10.5421 0 23.5C0 36.4579 10.5421 47 23.5 47C36.4579 47 47 36.4579 47 23.5C47 10.5421 36.4579 0 23.5 0ZM39.2561 21.0683L33.7458 27.0541L34.6854 35.1356C34.7977 36.0981 34.3803 37.0502 33.5958 37.6203C33.1334 37.9562 32.5871 38.1338 32.0157 38.1338C31.6264 38.1338 31.2495 38.0515 30.8958 37.8891L23.5 34.4982L16.1044 37.8891C15.7505 38.0513 15.3737 38.1338 14.9845 38.1338C14.413 38.1338 13.8666 37.9562 13.4043 37.6203C12.6199 37.0501 12.2024 36.0979 12.3148 35.135L13.2543 27.054L7.74392 21.068C7.08751 20.355 6.86548 19.3393 7.16521 18.4174C7.46461 17.4956 8.24114 16.804 9.19174 16.613L17.168 15.0091L21.1579 7.91895C21.6334 7.07405 22.5309 6.5493 23.5002 6.5493C24.4694 6.5493 25.367 7.07405 25.8424 7.91879L29.8323 15.0091L37.8086 16.613C38.7592 16.804 39.5355 17.4956 39.8351 18.4175C40.1347 19.3395 39.9127 20.3551 39.2561 21.0683Z" fill="#E29AE3"/>
</g>
<defs>
<clipPath id="clip0_34_809">
<rect width="47" height="47" fill="white"/>
</clipPath>
</defs>
</svg>
