<svg width="88" height="53" viewBox="0 0 88 53" fill="none" xmlns="http://www.w3.org/2000/svg">
<path d="M10.67 49.11L9.1159 51.6761L9.12382 51.6809L9.13178 51.6856L10.67 49.11ZM2.83 40.36L0.133695 41.6753L0.140142 41.6885L0.146719 41.7016L2.83 40.36ZM2.83 12.64L0.146719 11.2984L0.140142 11.3115L0.133695 11.3247L2.83 12.64ZM10.67 3.89L9.13178 1.31437L9.12382 1.31912L9.1159 1.32392L10.67 3.89ZM33.7 3.89L32.1459 6.45608L32.1538 6.46088L32.1618 6.46563L33.7 3.89ZM41.54 12.64L38.8437 13.9553L38.8501 13.9685L38.8567 13.9816L41.54 12.64ZM41.54 40.36L38.8567 39.0184L38.8501 39.0315L38.8437 39.0447L41.54 40.36ZM33.7 49.11L32.1618 46.5344L32.1538 46.5391L32.1459 46.5439L33.7 49.11ZM27.05 33.92L24.1627 33.1056L24.1529 33.1401L24.144 33.1749L27.05 33.92ZM27.05 19.08L24.144 19.8251L24.1555 19.8698L24.1683 19.9142L27.05 19.08ZM25.09 15.23L27.0831 12.9878L27.0831 12.9878L25.09 15.23ZM19.35 15.23L17.3569 12.9878L17.3569 12.9878L19.35 15.23ZM17.32 19.08L14.4327 18.2656L14.4255 18.291L14.4188 18.3165L17.32 19.08ZM17.32 33.92L14.414 34.6651L14.4229 34.6999L14.4327 34.7344L17.32 33.92ZM22.22 49.12C18.361 49.12 15.0537 48.2338 12.2082 46.5344L9.13178 51.6856C13.0063 53.9996 17.399 55.12 22.22 55.12V49.12ZM12.2241 46.5439C9.44501 44.8608 7.20072 42.3932 5.51328 39.0184L0.146719 41.7016C2.28595 45.9801 5.26832 49.3459 9.1159 51.6761L12.2241 46.5439ZM5.52631 39.0447C3.90615 35.7234 3.03 31.5775 3.03 26.5H-2.97C-2.97 32.2491 -1.97948 37.3433 0.133695 41.6753L5.52631 39.0447ZM3.03 26.5C3.03 21.4225 3.90615 17.2766 5.52631 13.9553L0.133695 11.3247C-1.97948 15.6567 -2.97 20.7509 -2.97 26.5H3.03ZM5.51328 13.9816C7.20072 10.6068 9.44501 8.13919 12.2241 6.45608L9.1159 1.32392C5.26832 3.65414 2.28595 7.01989 0.146719 11.2984L5.51328 13.9816ZM12.2082 6.46563C15.0537 4.76622 18.361 3.88 22.22 3.88V-2.12C17.399 -2.12 13.0063 -0.999561 9.13178 1.31437L12.2082 6.46563ZM22.22 3.88C26.0798 3.88 29.356 4.7664 32.1459 6.45608L35.2541 1.32392C31.4174 -0.999735 27.0402 -2.12 22.22 -2.12V3.88ZM32.1618 6.46563C34.9776 8.14729 37.2091 10.6043 38.8437 13.9553L44.2363 11.3247C42.1376 7.02239 39.1424 3.64603 35.2382 1.31437L32.1618 6.46563ZM38.8567 13.9816C40.514 17.2961 41.41 21.4322 41.41 26.5H47.41C47.41 20.7412 46.3927 15.6372 44.2233 11.2984L38.8567 13.9816ZM41.41 26.5C41.41 31.5678 40.514 35.7039 38.8567 39.0184L44.2233 41.7016C46.3927 37.3628 47.41 32.2588 47.41 26.5H41.41ZM38.8437 39.0447C37.2091 42.3957 34.9776 44.8527 32.1618 46.5344L35.2382 51.6856C39.1424 49.354 42.1376 45.9776 44.2363 41.6753L38.8437 39.0447ZM32.1459 46.5439C29.356 48.2336 26.0798 49.12 22.22 49.12V55.12C27.0402 55.12 31.4174 53.9997 35.2541 51.6761L32.1459 46.5439ZM22.22 41.89C24.0651 41.89 25.7222 41.2219 27.0831 40.0122L23.0969 35.5278C22.7778 35.8115 22.5216 35.89 22.22 35.89V41.89ZM27.0831 40.0122C28.5791 38.6824 29.4305 36.7146 29.956 34.6651L24.144 33.1749C23.7362 34.7654 23.2809 35.3642 23.0969 35.5278L27.0831 40.0122ZM29.9374 34.7344C30.5582 32.5333 30.82 29.7476 30.82 26.5H24.82C24.82 29.5057 24.5685 31.6666 24.1627 33.1056L29.9374 34.7344ZM30.82 26.5C30.82 23.2158 30.56 20.4165 29.9317 18.2458L24.1683 19.9142C24.5666 21.2902 24.82 23.4375 24.82 26.5H30.82ZM29.956 18.3349C29.4305 16.2854 28.5791 14.3176 27.0831 12.9878L23.0969 17.4722C23.2809 17.6358 23.7362 18.2346 24.144 19.8251L29.956 18.3349ZM27.0831 12.9878C25.7222 11.7781 24.0651 11.11 22.22 11.11V17.11C22.5216 17.11 22.7778 17.1885 23.0969 17.4722L27.0831 12.9878ZM22.22 11.11C20.3749 11.11 18.7178 11.7781 17.3569 12.9878L21.3431 17.4722C21.6622 17.1885 21.9184 17.11 22.22 17.11V11.11ZM17.3569 12.9878C15.8867 14.2946 15.0069 16.2296 14.4327 18.2656L20.2074 19.8944C20.6598 18.2904 21.1333 17.6587 21.3431 17.4722L17.3569 12.9878ZM14.4188 18.3165C13.8558 20.4559 13.62 23.2272 13.62 26.5H19.62C19.62 23.4262 19.8509 21.2507 20.2212 19.8435L14.4188 18.3165ZM13.62 26.5C13.62 29.7355 13.8574 32.4942 14.414 34.6651L20.226 33.1749C19.8493 31.7058 19.62 29.5179 19.62 26.5H13.62ZM14.4327 34.7344C15.0069 36.7704 15.8867 38.7054 17.3569 40.0122L21.3431 35.5278C21.1333 35.3413 20.6598 34.7096 20.2074 33.1056L14.4327 34.7344ZM17.3569 40.0122C18.7178 41.2219 20.3749 41.89 22.22 41.89V35.89C21.9184 35.89 21.6622 35.8115 21.3431 35.5278L17.3569 40.0122ZM54.4632 51L53.8292 53.9322L54.4632 51ZM45.3632 47.71L42.6375 46.4568L41.4745 48.9863L43.9103 50.3347L45.3632 47.71ZM50.9632 35.53L52.464 32.9324L49.613 31.2851L48.2375 34.2768L50.9632 35.53ZM57.5432 38.26L56.7739 41.1597L56.8084 41.1688L56.8431 41.1772L57.5432 38.26ZM68.6732 38.19L70.0573 40.8517L70.0765 40.8417L70.0955 40.8314L68.6732 38.19ZM69.1632 32.87L67.4692 35.3459L67.5146 35.377L67.5612 35.4065L69.1632 32.87ZM58.1732 31.96H55.1732V34.96H58.1732V31.96ZM58.1732 21.81L56.0345 19.7062L55.1732 20.5818V21.81H58.1732ZM70.8432 8.93L73.7425 8.1593L72.3918 3.07784L68.7045 6.82619L70.8432 8.93ZM72.3132 14.46V17.46H76.2149L75.2125 13.6893L72.3132 14.46ZM47.8832 14.46H44.8832V17.46H47.8832V14.46ZM47.8832 2V-1H44.8832V2H47.8832ZM84.4232 2H87.4232V-1H84.4232V2ZM84.4232 12.15L86.5619 14.2538L87.4232 13.3782V12.15H84.4232ZM71.7532 25.03L70.2747 27.6404L72.2777 28.7748L73.8919 27.1338L71.7532 25.03ZM63.8432 20.55V17.55H52.4589L62.3647 23.1604L63.8432 20.55ZM84.7032 43.37L82.1514 41.7925L82.141 41.8095L82.1307 41.8265L84.7032 43.37ZM77.4232 49.67L76.0967 46.9792L76.0891 46.9829L76.0816 46.9867L77.4232 49.67ZM64.6832 49.12C61.547 49.12 58.3529 48.7717 55.0972 48.0678L53.8292 53.9322C57.4802 54.7216 61.0994 55.12 64.6832 55.12V49.12ZM55.0972 48.0678C51.8796 47.3721 49.1312 46.3668 46.8162 45.0853L43.9103 50.3347C46.8219 51.9465 50.1401 53.1346 53.8292 53.9322L55.0972 48.0678ZM48.0889 48.9632L53.6889 36.7832L48.2375 34.2768L42.6375 46.4568L48.0889 48.9632ZM49.4624 38.1276C51.786 39.4701 54.2247 40.4834 56.7739 41.1597L58.3125 35.3603C56.2884 34.8233 54.3404 34.0165 52.464 32.9324L49.4624 38.1276ZM56.8431 41.1772C59.3683 41.7832 61.7984 42.1 64.1232 42.1V36.1C62.3413 36.1 60.3848 35.8568 58.2433 35.3428L56.8431 41.1772ZM64.1232 42.1C66.2822 42.1 68.3218 41.7541 70.0573 40.8517L67.2891 35.5284C66.6913 35.8392 65.6975 36.1 64.1232 36.1V42.1ZM70.0955 40.8314C71.0577 40.3133 71.9391 39.5868 72.5717 38.5891C73.2133 37.5775 73.4932 36.453 73.4932 35.32H67.4932C67.4932 35.393 67.4846 35.4207 67.4859 35.4162C67.4877 35.4095 67.4941 35.3925 67.5047 35.3759C67.5307 35.3349 67.5021 35.4133 67.2509 35.5486L70.0955 40.8314ZM73.4932 35.32C73.4932 33.2467 72.5467 31.4587 70.7652 30.3335L67.5612 35.4065C67.5994 35.4306 67.6028 35.4384 67.5875 35.4226C67.571 35.4055 67.5466 35.3751 67.5241 35.3338C67.5019 35.2927 67.4923 35.2606 67.4894 35.2482C67.4869 35.2377 67.4932 35.2583 67.4932 35.32H73.4932ZM70.8573 30.3941C69.1833 29.2487 66.9042 28.96 64.6832 28.96V34.96C65.602 34.96 66.2889 35.0275 66.781 35.1275C67.0231 35.1766 67.196 35.2293 67.313 35.274C67.4303 35.3189 67.4734 35.3489 67.4692 35.3459L70.8573 30.3941ZM64.6832 28.96H58.1732V34.96H64.6832V28.96ZM61.1732 31.96V21.81H55.1732V31.96H61.1732ZM60.3119 23.9138L72.9819 11.0338L68.7045 6.82619L56.0345 19.7062L60.3119 23.9138ZM67.9439 9.7007L69.4139 15.2307L75.2125 13.6893L73.7425 8.1593L67.9439 9.7007ZM72.3132 11.46H47.8832V17.46H72.3132V11.46ZM50.8832 14.46V2H44.8832V14.46H50.8832ZM47.8832 5H84.4232V-1H47.8832V5ZM81.4232 2V12.15H87.4232V2H81.4232ZM82.2845 10.0462L69.6145 22.9262L73.8919 27.1338L86.5619 14.2538L82.2845 10.0462ZM73.2317 22.4196L65.3217 17.9396L62.3647 23.1604L70.2747 27.6404L73.2317 22.4196ZM63.8432 23.55H68.1832V17.55H63.8432V23.55ZM68.1832 23.55C73.9457 23.55 77.8274 24.8428 80.3036 26.9601L84.2029 22.3999C80.2391 19.0106 74.7407 17.55 68.1832 17.55V23.55ZM80.3036 26.9601C82.8385 29.1277 84.0832 31.8324 84.0832 35.32H90.0832C90.0832 30.1276 88.1079 25.739 84.2029 22.3999L80.3036 26.9601ZM84.0832 35.32C84.0832 37.5194 83.4687 39.6616 82.1514 41.7925L87.255 44.9475C89.111 41.9451 90.0832 38.7206 90.0832 35.32H84.0832ZM82.1307 41.8265C80.9499 43.7946 79.0145 45.5409 76.0967 46.9792L78.7497 52.3608C82.4586 50.5325 85.3765 48.0788 87.2757 44.9135L82.1307 41.8265ZM76.0816 46.9867C73.3716 48.3417 69.6313 49.12 64.6832 49.12V55.12C70.1885 55.12 74.9415 54.265 78.7648 52.3533L76.0816 46.9867Z" fill="#7443FF"/>
</svg>
