<svg width="88" height="53" viewBox="0 0 88 53" fill="none" xmlns="http://www.w3.org/2000/svg">
<path d="M10.67 49.11L9.1159 51.6761L9.12382 51.6809L9.13178 51.6856L10.67 49.11ZM2.83 40.36L0.133695 41.6753L0.140142 41.6885L0.146719 41.7016L2.83 40.36ZM2.83 12.64L0.146719 11.2984L0.140142 11.3115L0.133695 11.3247L2.83 12.64ZM10.67 3.89L9.13178 1.31437L9.12382 1.31912L9.1159 1.32392L10.67 3.89ZM33.7 3.89L32.1459 6.45608L32.1538 6.46088L32.1618 6.46563L33.7 3.89ZM41.54 12.64L38.8437 13.9553L38.8501 13.9685L38.8567 13.9816L41.54 12.64ZM41.54 40.36L38.8567 39.0184L38.8501 39.0315L38.8437 39.0447L41.54 40.36ZM33.7 49.11L32.1618 46.5344L32.1538 46.5391L32.1459 46.5439L33.7 49.11ZM27.05 33.92L24.1627 33.1056L24.1529 33.1401L24.144 33.1749L27.05 33.92ZM27.05 19.08L24.144 19.8251L24.1555 19.8698L24.1683 19.9142L27.05 19.08ZM25.09 15.23L27.0831 12.9878L27.0831 12.9878L25.09 15.23ZM19.35 15.23L17.3569 12.9878L17.3569 12.9878L19.35 15.23ZM17.32 19.08L14.4327 18.2656L14.4255 18.291L14.4188 18.3165L17.32 19.08ZM17.32 33.92L14.414 34.6651L14.4229 34.6999L14.4327 34.7344L17.32 33.92ZM22.22 49.12C18.361 49.12 15.0537 48.2338 12.2082 46.5344L9.13178 51.6856C13.0063 53.9996 17.399 55.12 22.22 55.12V49.12ZM12.2241 46.5439C9.44501 44.8608 7.20072 42.3932 5.51328 39.0184L0.146719 41.7016C2.28595 45.9801 5.26832 49.3459 9.1159 51.6761L12.2241 46.5439ZM5.52631 39.0447C3.90615 35.7234 3.03 31.5775 3.03 26.5H-2.97C-2.97 32.2491 -1.97948 37.3433 0.133695 41.6753L5.52631 39.0447ZM3.03 26.5C3.03 21.4225 3.90615 17.2766 5.52631 13.9553L0.133695 11.3247C-1.97948 15.6567 -2.97 20.7509 -2.97 26.5H3.03ZM5.51328 13.9816C7.20072 10.6068 9.44501 8.13919 12.2241 6.45608L9.1159 1.32392C5.26832 3.65414 2.28595 7.01989 0.146719 11.2984L5.51328 13.9816ZM12.2082 6.46563C15.0537 4.76622 18.361 3.88 22.22 3.88V-2.12C17.399 -2.12 13.0063 -0.999561 9.13178 1.31437L12.2082 6.46563ZM22.22 3.88C26.0798 3.88 29.356 4.7664 32.1459 6.45608L35.2541 1.32392C31.4174 -0.999735 27.0402 -2.12 22.22 -2.12V3.88ZM32.1618 6.46563C34.9776 8.14729 37.2091 10.6043 38.8437 13.9553L44.2363 11.3247C42.1376 7.02239 39.1424 3.64603 35.2382 1.31437L32.1618 6.46563ZM38.8567 13.9816C40.514 17.2961 41.41 21.4322 41.41 26.5H47.41C47.41 20.7412 46.3927 15.6372 44.2233 11.2984L38.8567 13.9816ZM41.41 26.5C41.41 31.5678 40.514 35.7039 38.8567 39.0184L44.2233 41.7016C46.3927 37.3628 47.41 32.2588 47.41 26.5H41.41ZM38.8437 39.0447C37.2091 42.3957 34.9776 44.8527 32.1618 46.5344L35.2382 51.6856C39.1424 49.354 42.1376 45.9776 44.2363 41.6753L38.8437 39.0447ZM32.1459 46.5439C29.356 48.2336 26.0798 49.12 22.22 49.12V55.12C27.0402 55.12 31.4174 53.9997 35.2541 51.6761L32.1459 46.5439ZM22.22 41.89C24.0651 41.89 25.7222 41.2219 27.0831 40.0122L23.0969 35.5278C22.7778 35.8115 22.5216 35.89 22.22 35.89V41.89ZM27.0831 40.0122C28.5791 38.6824 29.4305 36.7146 29.956 34.6651L24.144 33.1749C23.7362 34.7654 23.2809 35.3642 23.0969 35.5278L27.0831 40.0122ZM29.9374 34.7344C30.5582 32.5333 30.82 29.7476 30.82 26.5H24.82C24.82 29.5057 24.5685 31.6666 24.1627 33.1056L29.9374 34.7344ZM30.82 26.5C30.82 23.2158 30.56 20.4165 29.9317 18.2458L24.1683 19.9142C24.5666 21.2902 24.82 23.4375 24.82 26.5H30.82ZM29.956 18.3349C29.4305 16.2854 28.5791 14.3176 27.0831 12.9878L23.0969 17.4722C23.2809 17.6358 23.7362 18.2346 24.144 19.8251L29.956 18.3349ZM27.0831 12.9878C25.7222 11.7781 24.0651 11.11 22.22 11.11V17.11C22.5216 17.11 22.7778 17.1885 23.0969 17.4722L27.0831 12.9878ZM22.22 11.11C20.3749 11.11 18.7178 11.7781 17.3569 12.9878L21.3431 17.4722C21.6622 17.1885 21.9184 17.11 22.22 17.11V11.11ZM17.3569 12.9878C15.8867 14.2946 15.0069 16.2296 14.4327 18.2656L20.2074 19.8944C20.6598 18.2904 21.1333 17.6587 21.3431 17.4722L17.3569 12.9878ZM14.4188 18.3165C13.8558 20.4559 13.62 23.2272 13.62 26.5H19.62C19.62 23.4262 19.8509 21.2507 20.2212 19.8435L14.4188 18.3165ZM13.62 26.5C13.62 29.7355 13.8574 32.4942 14.414 34.6651L20.226 33.1749C19.8493 31.7058 19.62 29.5179 19.62 26.5H13.62ZM14.4327 34.7344C15.0069 36.7704 15.8867 38.7054 17.3569 40.0122L21.3431 35.5278C21.1333 35.3413 20.6598 34.7096 20.2074 33.1056L14.4327 34.7344ZM17.3569 40.0122C18.7178 41.2219 20.3749 41.89 22.22 41.89V35.89C21.9184 35.89 21.6622 35.8115 21.3431 35.5278L17.3569 40.0122ZM47.7432 51H44.7432V54H47.7432V51ZM47.7432 40.85L45.7062 38.6476L44.7432 39.5383V40.85H47.7432ZM65.4532 24.47L67.4902 26.6724L67.5097 26.6544L67.5289 26.636L65.4532 24.47ZM67.9032 21.67L65.4523 19.9399L65.4174 19.9894L65.3845 20.0402L67.9032 21.67ZM69.0232 19.57L71.8905 20.4523L71.8995 20.4233L71.9078 20.3942L69.0232 19.57ZM68.1132 14.95L66.1283 17.1995L66.1666 17.2333L66.2061 17.2658L68.1132 14.95ZM60.4132 15.09L61.9016 17.6947L61.9361 17.675L61.9701 17.6544L60.4132 15.09ZM57.3332 18.45L55.9916 21.1333L58.6748 22.4749L60.0165 19.7916L57.3332 18.45ZM44.8732 12.22L42.22 10.8197L40.7887 13.5318L43.5316 14.9033L44.8732 12.22ZM52.8532 4.03L54.3817 6.61143V6.61143L52.8532 4.03ZM76.3732 2.77L75.2071 5.53409H75.2071L76.3732 2.77ZM83.3732 8.09L80.9556 9.86622V9.86623L83.3732 8.09ZM85.2632 20.97L82.3631 20.2023L82.3525 20.2425L82.3429 20.2829L85.2632 20.97ZM82.8832 26.01L85.3378 27.7348L85.3485 27.7195L85.3591 27.7041L82.8832 26.01ZM77.4932 31.82L75.4839 29.5923L75.4734 29.6018L77.4932 31.82ZM64.1932 43.93L61.4587 45.1639L63.158 48.9299L66.213 46.1482L64.1932 43.93ZM61.6032 38.19V35.19H56.9583L58.8687 39.4239L61.6032 38.19ZM87.0132 38.19H90.0132V35.19H87.0132V38.19ZM87.0132 51V54H90.0132V51H87.0132ZM50.7432 51V40.85H44.7432V51H50.7432ZM49.7802 43.0524L67.4902 26.6724L63.4162 22.2676L45.7062 38.6476L49.7802 43.0524ZM67.5289 26.636C68.7245 25.4902 69.7277 24.3726 70.4219 23.2998L65.3845 20.0402C65.052 20.5541 64.4219 21.3031 63.3775 22.304L67.5289 26.636ZM70.3541 23.4C71.0107 22.4699 71.5751 21.4774 71.8905 20.4523L66.1559 18.6877C66.098 18.8759 65.9157 19.2835 65.4523 19.9399L70.3541 23.4ZM71.9078 20.3942C72.1553 19.5278 72.3032 18.6406 72.3032 17.75H66.3032C66.3032 17.9794 66.2644 18.3056 66.1386 18.7458L71.9078 20.3942ZM72.3032 17.75C72.3032 15.8201 71.6335 13.9627 70.0203 12.6342L66.2061 17.2658C66.2269 17.2829 66.2334 17.2919 66.2338 17.2925C66.2342 17.2929 66.238 17.2977 66.2447 17.3134C66.2575 17.3436 66.3032 17.4689 66.3032 17.75H72.3032ZM70.0981 12.7005C68.5391 11.3249 66.5064 10.9 64.5432 10.9V16.9C65.7534 16.9 66.1007 17.1751 66.1283 17.1995L70.0981 12.7005ZM64.5432 10.9C62.5159 10.9 60.6045 11.4642 58.8563 12.5256L61.9701 17.6544C62.8352 17.1291 63.6772 16.9 64.5432 16.9V10.9ZM58.9248 12.4853C57.0484 13.5575 55.6314 15.1455 54.6499 17.1084L60.0165 19.7916C60.5284 18.7678 61.1647 18.1158 61.9016 17.6947L58.9248 12.4853ZM58.6748 15.7667L46.2148 9.53672L43.5316 14.9033L55.9916 21.1333L58.6748 15.7667ZM47.5264 13.6203C49.0192 10.7917 51.2698 8.45397 54.3817 6.61143L51.3247 1.44857C47.3433 3.80602 44.2739 6.92829 42.22 10.8197L47.5264 13.6203ZM54.3817 6.61143C57.3532 4.85197 61.2 3.88 66.0832 3.88V-2.12C60.4197 -2.12 55.4465 -0.991976 51.3247 1.44857L54.3817 6.61143ZM66.0832 3.88C69.6325 3.88 72.654 4.45701 75.2071 5.53409L77.5393 0.00590706C74.119 -1.43701 70.2805 -2.12 66.0832 -2.12V3.88ZM75.2071 5.53409C77.7675 6.61425 79.6395 8.07493 80.9556 9.86622L85.7908 6.31377C83.7469 3.53173 80.9523 1.44574 77.5393 0.00590515L75.2071 5.53409ZM80.9556 9.86623C82.2186 11.5853 82.8932 13.6538 82.8932 16.21H88.8932C88.8932 12.5129 87.8878 9.168 85.7908 6.31377L80.9556 9.86623ZM82.8932 16.21C82.8932 17.5287 82.7191 18.8575 82.3631 20.2023L88.1633 21.7377C88.6473 19.9092 88.8932 18.0646 88.8932 16.21H82.8932ZM82.3429 20.2829C82.0766 21.4149 81.4746 22.7561 80.4073 24.3159L85.3591 27.7041C86.7185 25.7172 87.7031 23.6984 88.1835 21.6571L82.3429 20.2829ZM80.4286 24.2852C79.3926 25.7595 77.7736 27.5271 75.4839 29.5923L79.5025 34.0477C81.9728 31.8196 83.9472 29.7138 85.3378 27.7348L80.4286 24.2852ZM75.4734 29.6018L62.1734 41.7118L66.213 46.1482L79.513 34.0382L75.4734 29.6018ZM66.9277 42.6961L64.3377 36.9561L58.8687 39.4239L61.4587 45.1639L66.9277 42.6961ZM61.6032 41.19H87.0132V35.19H61.6032V41.19ZM84.0132 38.19V51H90.0132V38.19H84.0132ZM87.0132 48H47.7432V54H87.0132V48Z" fill="#7443FF"/>
</svg>
